# xmcd
#
# Track frame offsets: 
#        150
#        8597
#        20877
#        30371
#        54915
#        69037
#        87061
#        99145
#        113822
#        127692
#        141833
#        160357
#
# Disc length: 2315 seconds
#
# Revision: 3
# Processed by: cddbd v1.5.2PL0 Copyright (c) Steve Scherf et al.
# Submitted via: ExactAudioCopyFreeDBPlugin 1.0
#
DISCID=8009090c
DTITLE=Bruno Lauzi - Flashback [Disc 1]
DYEAR=2009
DGENRE=Pop
TTITLE0=Mille Lire Al Mese
TTITLE1=Ritornerai
TTITLE2=Il Poeta
TTITLE3=Onda Su Onda
TTITLE4=Amore Caro, Amore Bello
TTITLE5=E Penso A Te
TTITLE6=L'Altra
TTITLE7=E Poi Morire...
TTITLE8=Le Bigotte
TTITLE9=La Casa Nel Parco
TTITLE10=Mary Oh Mary
TTITLE11=Al Mercato Dei Fiori
EXTD=
EXTT0=
EXTT1=
EXTT2=
EXTT3=
EXTT4=
EXTT5=
EXTT6=
EXTT7=
EXTT8=
EXTT9=
EXTT10=
EXTT11=
PLAYORDER=
